<svg xmlns="http://www.w3.org/2000/svg" xmlns:xlink="http://www.w3.org/1999/xlink" width="500" zoomAndPan="magnify" viewBox="0 0 375 93.749996" height="125" preserveAspectRatio="xMidYMid meet" version="1.0"><defs><g/><clipPath id="acf9eb5bb6"><path d="M 97 7 L 168 7 L 168 86 L 97 86 Z M 97 7 " clip-rule="nonzero"/></clipPath><clipPath id="8fe4167ef8"><path d="M 94 14.875 L 158.03125 -0.378906 L 176.402344 76.753906 L 112.371094 92.003906 Z M 94 14.875 " clip-rule="nonzero"/></clipPath><clipPath id="86204c1f4c"><path d="M 94 14.875 L 158.03125 -0.378906 L 176.402344 76.753906 L 112.371094 92.003906 Z M 94 14.875 " clip-rule="nonzero"/></clipPath></defs><g clip-path="url(#acf9eb5bb6)"><g clip-path="url(#8fe4167ef8)"><g clip-path="url(#86204c1f4c)"><path fill="#b6834a" d="M 166.335938 48.597656 C 170.136719 64.550781 160.300781 80.558594 144.367188 84.355469 C 128.429688 88.152344 112.433594 78.296875 108.632812 62.34375 C 104.835938 46.390625 114.671875 30.378906 130.605469 26.585938 C 146.539062 22.789062 162.539062 32.644531 166.335938 48.597656 Z M 126.023438 7.277344 C 121.386719 8.378906 118.527344 13.035156 119.632812 17.675781 C 120.738281 22.3125 125.390625 25.179688 130.023438 24.078125 C 134.65625 22.972656 137.519531 18.316406 136.414062 13.679688 C 135.308594 9.039062 130.65625 6.171875 126.023438 7.277344 Z M 151.226562 8.28125 C 146.59375 9.382812 143.734375 14.039062 144.839844 18.679688 C 145.941406 23.320312 150.59375 26.183594 155.230469 25.082031 C 159.863281 23.976562 162.722656 19.320312 161.621094 14.683594 C 160.515625 10.042969 155.863281 7.175781 151.226562 8.28125 Z M 103.976562 19.535156 C 99.34375 20.636719 96.480469 25.292969 97.585938 29.933594 C 98.691406 34.574219 103.34375 37.4375 107.976562 36.335938 C 112.609375 35.230469 115.472656 30.574219 114.367188 25.9375 C 113.261719 21.296875 108.609375 18.429688 103.976562 19.535156 Z M 103.976562 19.535156 " fill-opacity="1" fill-rule="nonzero"/></g></g></g><g fill="#000000" fill-opacity="1"><g transform="translate(135.260957, 67.643423)"><g><path d="M 6.546875 0.148438 L 8.941406 0.0507812 L 9.820312 0.0976562 L 10.945312 0 L 11.96875 -0.390625 L 12.410156 -1.417969 L 12.359375 -2.394531 L 12.410156 -3.46875 L 12.3125 -5.277344 L 12.410156 -6.203125 L 12.359375 -7.328125 L 12.800781 -8.207031 L 13.921875 -8.746094 L 15 -8.84375 L 16.023438 -8.648438 L 21.054688 -9.039062 L 25.699219 -10.894531 L 26.429688 -11.480469 L 27.113281 -12.261719 L 27.75 -12.898438 L 28.382812 -13.628906 L 29.410156 -15.195312 L 30.242188 -17.097656 L 30.386719 -18.175781 L 30.679688 -18.957031 L 30.777344 -22.960938 L 30.582031 -23.792969 L 30.4375 -24.867188 L 29.851562 -26.675781 L 28.921875 -28.335938 L 27.75 -29.949219 L 25.550781 -31.851562 L 23.9375 -32.929688 L 21.984375 -33.515625 L 21.152344 -33.855469 L 20.175781 -33.855469 L 19.199219 -34.199219 L 17.734375 -34.246094 L 16.171875 -34.199219 L 15.097656 -34.050781 L 12.117188 -34.101562 L 11.140625 -34.246094 L 8.109375 -34.050781 L 7.035156 -34.101562 L 6.15625 -34.246094 L 5.128906 -34.050781 L 4.105469 -33.515625 L 3.664062 -32.734375 L 3.714844 -26.820312 L 3.515625 -24.867188 L 3.617188 -23.9375 L 3.566406 -11.285156 L 3.664062 -10.355469 L 3.617188 -1.320312 L 4.152344 -0.390625 L 5.667969 0.0976562 Z M 13.875 -16.5625 L 12.898438 -17.148438 L 12.457031 -17.980469 L 12.3125 -21.9375 L 12.410156 -22.960938 L 12.410156 -24.964844 L 12.898438 -25.894531 L 13.921875 -26.382812 L 19.003906 -26.234375 L 19.980469 -25.796875 L 20.761719 -25.257812 L 21.398438 -24.621094 L 21.886719 -23.644531 L 22.035156 -22.765625 L 22.132812 -21.398438 L 22.035156 -20.078125 L 21.691406 -19.199219 L 21.25 -18.417969 L 20.617188 -17.636719 L 19.835938 -17.050781 L 19.054688 -16.804688 L 17.539062 -16.609375 L 15.046875 -16.660156 Z M 13.875 -16.5625 "/></g></g></g><g fill="#000000" fill-opacity="1"><g transform="translate(167.893423, 67.643423)"><g><path d="M 28.824219 0.0976562 L 30.679688 -0.0507812 L 31.609375 0.0507812 L 33.125 0 L 34.492188 -0.246094 L 34.636719 -1.417969 L 34.296875 -2.539062 L 33.5625 -4.347656 L 32.246094 -6.886719 L 31.558594 -8.695312 L 30.582031 -10.453125 L 28.726562 -14.902344 L 28.238281 -15.632812 L 27.75 -16.5625 L 27.457031 -17.636719 L 27.015625 -18.371094 L 26.722656 -19.152344 L 25.699219 -20.957031 L 25.355469 -21.984375 L 22.132812 -28.777344 L 21.839844 -29.753906 L 21.300781 -30.632812 L 21.007812 -31.511719 L 20.078125 -33.222656 L 19.25 -34.101562 L 17.636719 -34.589844 L 16.074219 -34.050781 L 15.195312 -33.222656 L 14.753906 -32.390625 L 14.414062 -31.414062 L 13.972656 -30.730469 L 12.019531 -26.234375 L 11.480469 -25.503906 L 11.238281 -24.523438 L 10.699219 -23.597656 L 10.40625 -22.71875 L 5.421875 -12.261719 L 5.128906 -11.1875 L 4.640625 -10.453125 L 4.300781 -9.476562 L 3.417969 -7.914062 L 2.6875 -5.960938 L 2.148438 -5.277344 L 1.90625 -4.398438 L 0.929688 -2.441406 L 0.636719 -1.464844 L 0.878906 -0.246094 L 1.855469 0.0507812 L 3.761719 -0.0507812 L 4.738281 0.0507812 L 7.476562 -0.0507812 L 8.597656 -0.390625 L 9.527344 -1.269531 L 10.40625 -2.882812 L 11.335938 -3.8125 L 12.359375 -4.347656 L 13.289062 -4.203125 L 15.339844 -4.398438 L 16.21875 -4.25 L 21.007812 -4.300781 L 21.886719 -4.203125 L 22.960938 -4.347656 L 24.035156 -3.8125 L 24.964844 -3.027344 L 25.40625 -2.101562 L 25.699219 -1.222656 L 26.675781 -0.488281 L 27.796875 0 Z M 17.734375 -12.066406 L 16.757812 -12.261719 L 15.632812 -12.164062 L 14.851562 -12.507812 L 14.804688 -13.433594 L 17.097656 -18.710938 L 17.636719 -19.152344 L 18.320312 -18.761719 L 20.617188 -13.386719 L 20.421875 -12.507812 L 19.6875 -12.117188 Z M 17.734375 -12.066406 "/></g></g></g><g fill="#000000" fill-opacity="1"><g transform="translate(203.847739, 67.643423)"><g><path d="M 11.96875 -1.074219 L 12.75 -0.195312 L 13.824219 0.441406 L 15.683594 0.390625 L 16.757812 0 L 17.539062 -1.027344 L 17.980469 -1.855469 L 18.273438 -2.929688 L 18.761719 -3.8125 L 19.003906 -4.640625 L 19.445312 -5.667969 L 19.6875 -6.449219 L 21.203125 -10.0625 L 21.496094 -11.089844 L 22.375 -12.945312 L 23.011719 -14.851562 L 23.5 -14.707031 L 23.988281 -13.875 L 24.28125 -12.847656 L 25.113281 -11.1875 L 27.894531 -3.664062 L 28.628906 -2.050781 L 28.921875 -1.125 L 29.851562 -0.0976562 L 30.972656 0.488281 L 31.902344 0.441406 L 32.734375 0.292969 L 33.90625 -0.0976562 L 34.636719 -0.976562 L 34.929688 -1.90625 L 35.371094 -2.785156 L 38.300781 -11.285156 L 38.742188 -12.117188 L 40.355469 -16.269531 L 40.746094 -17.636719 L 41.183594 -18.515625 L 41.378906 -19.347656 L 44.507812 -27.652344 L 44.75 -28.726562 L 45.238281 -29.605469 L 46.167969 -32.585938 L 45.875 -33.757812 L 44.898438 -34.003906 L 43.921875 -34.148438 L 42.210938 -34.050781 L 40.257812 -34.148438 L 39.230469 -34.050781 L 38.300781 -34.199219 L 37.277344 -33.710938 L 36.445312 -32.683594 L 36.203125 -31.753906 L 35.761719 -30.925781 L 33.074219 -22.328125 L 32.878906 -21.347656 L 32.246094 -19.296875 L 31.902344 -17.246094 L 31.609375 -16.316406 L 31.121094 -16.367188 L 30.144531 -19.152344 L 29.898438 -20.128906 L 27.796875 -25.648438 L 27.308594 -27.503906 L 26.917969 -28.433594 L 26.332031 -30.386719 L 25.941406 -31.21875 L 25.550781 -32.097656 L 24.867188 -33.074219 L 23.839844 -33.660156 L 22.765625 -33.660156 L 21.789062 -33.171875 L 20.957031 -32.195312 L 19.347656 -27.359375 L 18.613281 -25.601562 L 16.855469 -19.933594 L 16.367188 -19.199219 L 16.171875 -18.175781 L 15.4375 -16.316406 L 15.046875 -16.269531 L 14.851562 -17.441406 L 11.726562 -28.089844 L 11.335938 -28.921875 L 10.75 -30.828125 L 10.550781 -31.804688 L 10.160156 -32.78125 L 9.28125 -33.5625 L 8.355469 -34.003906 L 4.445312 -34.050781 L 3.566406 -34.246094 L 2.6875 -34.101562 L 1.660156 -34.050781 L 0.636719 -33.757812 L 0.441406 -32.636719 L 0.683594 -31.316406 L 2.734375 -25.746094 L 3.175781 -24.914062 L 5.179688 -19.445312 L 5.472656 -18.371094 L 6.839844 -14.707031 L 7.28125 -13.921875 L 11.238281 -2.832031 L 11.675781 -1.90625 Z M 11.96875 -1.074219 "/></g></g></g><g fill="#000000" fill-opacity="1"><g transform="translate(250.940033, 67.643423)"><g><path d="M 13.140625 0.441406 L 17 0.539062 L 17.980469 0.441406 L 18.957031 0.195312 L 19.933594 0.0507812 L 20.910156 -0.34375 L 21.789062 -0.441406 L 22.71875 -0.878906 L 26.039062 -2.882812 L 27.457031 -4.347656 L 27.945312 -5.03125 L 28.480469 -6.105469 L 28.777344 -6.984375 L 29.070312 -7.816406 L 29.363281 -10.257812 L 29.265625 -11.824219 L 28.53125 -14.65625 L 27.992188 -15.4375 L 26.722656 -16.902344 L 25.84375 -17.683594 L 25.0625 -18.078125 L 24.183594 -18.613281 L 20.371094 -19.785156 L 19.394531 -19.933594 L 18.417969 -19.980469 L 17.390625 -20.175781 L 15.976562 -20.175781 L 13.386719 -20.714844 L 11.578125 -21.59375 L 10.847656 -22.277344 L 10.648438 -23.742188 L 10.894531 -25.0625 L 11.480469 -25.699219 L 12.214844 -26.234375 L 12.996094 -26.675781 L 13.875 -26.871094 L 15.4375 -26.917969 L 17 -26.722656 L 17.882812 -26.480469 L 18.761719 -25.894531 L 19.589844 -25.210938 L 20.324219 -24.230469 L 21.398438 -23.597656 L 23.695312 -23.792969 L 25.015625 -23.695312 L 25.992188 -23.695312 L 26.871094 -23.597656 L 27.796875 -24.28125 L 28.1875 -25.113281 L 27.992188 -26.039062 L 27.894531 -26.96875 L 26.527344 -29.507812 L 25.453125 -30.972656 L 22.230469 -33.222656 L 19.492188 -34.148438 L 17.585938 -34.539062 L 13.824219 -34.636719 L 12.75 -34.34375 L 11.773438 -34.296875 L 10.894531 -34.148438 L 9.039062 -33.5625 L 7.378906 -32.585938 L 5.03125 -30.972656 L 3.320312 -28.679688 L 2.441406 -25.992188 L 2.296875 -23.597656 L 2.34375 -22.082031 L 2.6875 -20.128906 L 3.46875 -18.417969 L 5.277344 -16.171875 L 8.597656 -14.363281 L 10.355469 -13.777344 L 18.027344 -12.898438 L 19.785156 -12.066406 L 20.421875 -11.480469 L 20.714844 -10.257812 L 20.324219 -9.039062 L 19.6875 -8.304688 L 18.027344 -7.574219 L 16.511719 -7.476562 L 15.632812 -7.328125 L 13.140625 -7.574219 L 12.3125 -8.011719 L 11.480469 -8.550781 L 9.867188 -10.308594 L 8.890625 -10.699219 L 8.011719 -10.601562 L 7.082031 -10.75 L 3.320312 -10.550781 L 2.441406 -10.160156 L 2.050781 -9.136719 L 2.199219 -8.160156 L 2.394531 -7.183594 L 2.6875 -6.300781 L 3.617188 -4.496094 L 4.300781 -3.859375 L 4.933594 -3.125 L 6.644531 -2.050781 L 7.328125 -1.320312 L 8.257812 -0.878906 L 9.234375 -0.585938 L 11.140625 0.0976562 Z M 13.140625 0.441406 "/></g></g></g></svg>