<svg xmlns="http://www.w3.org/2000/svg" xmlns:xlink="http://www.w3.org/1999/xlink" width="500" zoomAndPan="magnify" viewBox="0 0 375 93.749996" height="125" preserveAspectRatio="xMidYMid meet" version="1.0"><defs><g/><clipPath id="106703b806"><path d="M 97 7 L 168 7 L 168 86 L 97 86 Z M 97 7 " clip-rule="nonzero"/></clipPath><clipPath id="f4efc6a933"><path d="M 94 14.875 L 158.03125 -0.378906 L 176.402344 76.753906 L 112.371094 92.003906 Z M 94 14.875 " clip-rule="nonzero"/></clipPath><clipPath id="ba00255b25"><path d="M 94 14.875 L 158.03125 -0.378906 L 176.402344 76.753906 L 112.371094 92.003906 Z M 94 14.875 " clip-rule="nonzero"/></clipPath></defs><g clip-path="url(#106703b806)"><g clip-path="url(#f4efc6a933)"><g clip-path="url(#ba00255b25)"><path fill="#b6834a" d="M 166.335938 48.597656 C 170.136719 64.550781 160.300781 80.558594 144.367188 84.355469 C 128.429688 88.152344 112.433594 78.296875 108.632812 62.34375 C 104.835938 46.390625 114.671875 30.378906 130.605469 26.585938 C 146.539062 22.789062 162.539062 32.644531 166.335938 48.597656 Z M 126.023438 7.277344 C 121.386719 8.378906 118.527344 13.035156 119.632812 17.675781 C 120.738281 22.3125 125.390625 25.179688 130.023438 24.078125 C 134.65625 22.972656 137.519531 18.316406 136.414062 13.679688 C 135.308594 9.039062 130.65625 6.171875 126.023438 7.277344 Z M 151.226562 8.28125 C 146.59375 9.382812 143.734375 14.039062 144.839844 18.679688 C 145.941406 23.320312 150.59375 26.183594 155.230469 25.082031 C 159.863281 23.976562 162.722656 19.320312 161.621094 14.683594 C 160.515625 10.042969 155.863281 7.175781 151.226562 8.28125 Z M 103.976562 19.535156 C 99.34375 20.636719 96.480469 25.292969 97.585938 29.933594 C 98.691406 34.574219 103.34375 37.4375 107.976562 36.335938 C 112.609375 35.230469 115.472656 30.574219 114.367188 25.9375 C 113.261719 21.296875 108.609375 18.429688 103.976562 19.535156 Z M 103.976562 19.535156 " fill-opacity="1" fill-rule="nonzero"/></g></g></g><g fill="#ffffff" fill-opacity="1"><g transform="translate(135.260957, 67.213381)"><g><path d="M 6.546875 0.148438 L 8.941406 0.0507812 L 9.820312 0.0976562 L 10.945312 0 L 11.96875 -0.390625 L 12.410156 -1.417969 L 12.363281 -2.394531 L 12.410156 -3.46875 L 12.3125 -5.277344 L 12.410156 -6.207031 L 12.363281 -7.328125 L 12.800781 -8.207031 L 13.925781 -8.746094 L 15 -8.84375 L 16.027344 -8.648438 L 21.058594 -9.039062 L 25.699219 -10.894531 L 26.433594 -11.480469 L 27.117188 -12.265625 L 27.753906 -12.898438 L 28.386719 -13.632812 L 29.414062 -15.195312 L 30.246094 -17.101562 L 30.390625 -18.175781 L 30.683594 -18.957031 L 30.78125 -22.964844 L 30.585938 -23.792969 L 30.441406 -24.871094 L 29.851562 -26.675781 L 28.925781 -28.339844 L 27.753906 -29.949219 L 25.554688 -31.855469 L 23.941406 -32.929688 L 21.988281 -33.519531 L 21.15625 -33.859375 L 20.179688 -33.859375 L 19.203125 -34.203125 L 17.734375 -34.25 L 16.171875 -34.203125 L 15.097656 -34.054688 L 12.117188 -34.105469 L 11.140625 -34.25 L 8.109375 -34.054688 L 7.035156 -34.105469 L 6.15625 -34.25 L 5.128906 -34.054688 L 4.105469 -33.519531 L 3.664062 -32.734375 L 3.714844 -26.824219 L 3.519531 -24.871094 L 3.617188 -23.941406 L 3.566406 -11.285156 L 3.664062 -10.359375 L 3.617188 -1.320312 L 4.152344 -0.390625 L 5.667969 0.0976562 Z M 13.875 -16.5625 L 12.898438 -17.148438 L 12.460938 -17.980469 L 12.3125 -21.9375 L 12.410156 -22.964844 L 12.410156 -24.96875 L 12.898438 -25.894531 L 13.925781 -26.382812 L 19.007812 -26.238281 L 19.984375 -25.796875 L 20.765625 -25.261719 L 21.402344 -24.625 L 21.890625 -23.648438 L 22.035156 -22.769531 L 22.132812 -21.402344 L 22.035156 -20.082031 L 21.695312 -19.203125 L 21.253906 -18.421875 L 20.617188 -17.636719 L 19.835938 -17.050781 L 19.054688 -16.808594 L 17.539062 -16.613281 L 15.046875 -16.660156 Z M 13.875 -16.5625 "/></g></g></g><g fill="#ffffff" fill-opacity="1"><g transform="translate(167.895516, 67.213381)"><g><path d="M 28.828125 0.0976562 L 30.683594 -0.0507812 L 31.613281 0.0507812 L 33.125 0 L 34.496094 -0.246094 L 34.640625 -1.417969 L 34.300781 -2.539062 L 33.566406 -4.347656 L 32.246094 -6.890625 L 31.5625 -8.695312 L 30.585938 -10.457031 L 28.730469 -14.902344 L 28.242188 -15.636719 L 27.753906 -16.5625 L 27.460938 -17.636719 L 27.019531 -18.371094 L 26.726562 -19.152344 L 25.699219 -20.960938 L 25.359375 -21.988281 L 22.132812 -28.777344 L 21.839844 -29.753906 L 21.304688 -30.636719 L 21.007812 -31.515625 L 20.082031 -33.222656 L 19.25 -34.105469 L 17.636719 -34.59375 L 16.074219 -34.054688 L 15.195312 -33.222656 L 14.753906 -32.394531 L 14.414062 -31.417969 L 13.972656 -30.734375 L 12.019531 -26.238281 L 11.480469 -25.503906 L 11.238281 -24.527344 L 10.699219 -23.597656 L 10.40625 -22.71875 L 5.421875 -12.265625 L 5.128906 -11.1875 L 4.640625 -10.457031 L 4.300781 -9.480469 L 3.421875 -7.914062 L 2.6875 -5.960938 L 2.148438 -5.277344 L 1.90625 -4.398438 L 0.929688 -2.441406 L 0.636719 -1.464844 L 0.878906 -0.246094 L 1.855469 0.0507812 L 3.761719 -0.0507812 L 4.738281 0.0507812 L 7.476562 -0.0507812 L 8.597656 -0.390625 L 9.527344 -1.269531 L 10.40625 -2.882812 L 11.335938 -3.8125 L 12.363281 -4.347656 L 13.289062 -4.203125 L 15.34375 -4.398438 L 16.222656 -4.25 L 21.007812 -4.300781 L 21.890625 -4.203125 L 22.964844 -4.347656 L 24.039062 -3.8125 L 24.96875 -3.03125 L 25.40625 -2.101562 L 25.699219 -1.222656 L 26.675781 -0.488281 L 27.800781 0 Z M 17.734375 -12.066406 L 16.757812 -12.265625 L 15.636719 -12.167969 L 14.851562 -12.507812 L 14.804688 -13.4375 L 17.101562 -18.714844 L 17.636719 -19.152344 L 18.324219 -18.761719 L 20.617188 -13.386719 L 20.421875 -12.507812 L 19.691406 -12.117188 Z M 17.734375 -12.066406 "/></g></g></g><g fill="#ffffff" fill-opacity="1"><g transform="translate(203.852146, 67.213381)"><g><path d="M 11.96875 -1.074219 L 12.753906 -0.195312 L 13.828125 0.441406 L 15.683594 0.390625 L 16.757812 0 L 17.539062 -1.027344 L 17.980469 -1.855469 L 18.273438 -2.929688 L 18.761719 -3.8125 L 19.007812 -4.640625 L 19.445312 -5.667969 L 19.691406 -6.449219 L 21.207031 -10.066406 L 21.5 -11.089844 L 22.378906 -12.949219 L 23.011719 -14.851562 L 23.5 -14.707031 L 23.988281 -13.875 L 24.285156 -12.851562 L 25.113281 -11.1875 L 27.898438 -3.664062 L 28.632812 -2.050781 L 28.925781 -1.125 L 29.851562 -0.0976562 L 30.976562 0.488281 L 31.90625 0.441406 L 32.734375 0.292969 L 33.910156 -0.0976562 L 34.640625 -0.976562 L 34.933594 -1.90625 L 35.375 -2.785156 L 38.304688 -11.285156 L 38.746094 -12.117188 L 40.359375 -16.269531 L 40.75 -17.636719 L 41.1875 -18.519531 L 41.382812 -19.347656 L 44.511719 -27.65625 L 44.753906 -28.730469 L 45.242188 -29.609375 L 46.171875 -32.589844 L 45.878906 -33.761719 L 44.902344 -34.007812 L 43.925781 -34.152344 L 42.214844 -34.054688 L 40.261719 -34.152344 L 39.234375 -34.054688 L 38.304688 -34.203125 L 37.28125 -33.714844 L 36.449219 -32.6875 L 36.203125 -31.757812 L 35.765625 -30.929688 L 33.078125 -22.328125 L 32.882812 -21.351562 L 32.246094 -19.300781 L 31.90625 -17.246094 L 31.613281 -16.320312 L 31.125 -16.367188 L 30.144531 -19.152344 L 29.902344 -20.128906 L 27.800781 -25.652344 L 27.3125 -27.507812 L 26.921875 -28.4375 L 26.335938 -30.390625 L 25.945312 -31.222656 L 25.554688 -32.101562 L 24.871094 -33.078125 L 23.84375 -33.664062 L 22.769531 -33.664062 L 21.792969 -33.175781 L 20.960938 -32.199219 L 19.347656 -27.363281 L 18.617188 -25.601562 L 16.855469 -19.933594 L 16.367188 -19.203125 L 16.171875 -18.175781 L 15.441406 -16.320312 L 15.046875 -16.269531 L 14.851562 -17.441406 L 11.726562 -28.09375 L 11.335938 -28.925781 L 10.75 -30.832031 L 10.554688 -31.808594 L 10.164062 -32.785156 L 9.285156 -33.566406 L 8.355469 -34.007812 L 4.445312 -34.054688 L 3.566406 -34.25 L 2.6875 -34.105469 L 1.660156 -34.054688 L 0.636719 -33.761719 L 0.441406 -32.636719 L 0.683594 -31.320312 L 2.734375 -25.75 L 3.175781 -24.917969 L 5.179688 -19.445312 L 5.472656 -18.371094 L 6.839844 -14.707031 L 7.28125 -13.925781 L 11.238281 -2.832031 L 11.675781 -1.90625 Z M 11.96875 -1.074219 "/></g></g></g><g fill="#ffffff" fill-opacity="1"><g transform="translate(250.947487, 67.213381)"><g><path d="M 13.144531 0.441406 L 17.003906 0.539062 L 17.980469 0.441406 L 18.957031 0.195312 L 19.933594 0.0507812 L 20.910156 -0.34375 L 21.792969 -0.441406 L 22.71875 -0.878906 L 26.042969 -2.882812 L 27.460938 -4.347656 L 27.949219 -5.03125 L 28.484375 -6.109375 L 28.777344 -6.988281 L 29.070312 -7.816406 L 29.363281 -10.261719 L 29.265625 -11.824219 L 28.535156 -14.65625 L 27.996094 -15.441406 L 26.726562 -16.90625 L 25.847656 -17.6875 L 25.066406 -18.078125 L 24.1875 -18.617188 L 20.375 -19.789062 L 19.398438 -19.933594 L 18.421875 -19.984375 L 17.394531 -20.179688 L 15.976562 -20.179688 L 13.386719 -20.714844 L 11.578125 -21.597656 L 10.847656 -22.28125 L 10.652344 -23.746094 L 10.894531 -25.066406 L 11.480469 -25.699219 L 12.214844 -26.238281 L 12.996094 -26.675781 L 13.875 -26.871094 L 15.441406 -26.921875 L 17.003906 -26.726562 L 17.882812 -26.480469 L 18.761719 -25.894531 L 19.59375 -25.210938 L 20.324219 -24.234375 L 21.402344 -23.597656 L 23.695312 -23.792969 L 25.015625 -23.695312 L 25.992188 -23.695312 L 26.871094 -23.597656 L 27.800781 -24.285156 L 28.191406 -25.113281 L 27.996094 -26.042969 L 27.898438 -26.96875 L 26.53125 -29.511719 L 25.457031 -30.976562 L 22.230469 -33.222656 L 19.496094 -34.152344 L 17.589844 -34.542969 L 13.828125 -34.640625 L 12.753906 -34.347656 L 11.773438 -34.300781 L 10.894531 -34.152344 L 9.039062 -33.566406 L 7.378906 -32.589844 L 5.03125 -30.976562 L 3.324219 -28.679688 L 2.441406 -25.992188 L 2.296875 -23.597656 L 2.34375 -22.085938 L 2.6875 -20.128906 L 3.46875 -18.421875 L 5.277344 -16.171875 L 8.597656 -14.363281 L 10.359375 -13.777344 L 18.027344 -12.898438 L 19.789062 -12.066406 L 20.421875 -11.480469 L 20.714844 -10.261719 L 20.324219 -9.039062 L 19.691406 -8.304688 L 18.027344 -7.574219 L 16.515625 -7.476562 L 15.636719 -7.328125 L 13.144531 -7.574219 L 12.3125 -8.011719 L 11.480469 -8.550781 L 9.871094 -10.308594 L 8.890625 -10.699219 L 8.011719 -10.601562 L 7.085938 -10.75 L 3.324219 -10.554688 L 2.441406 -10.164062 L 2.050781 -9.136719 L 2.199219 -8.160156 L 2.394531 -7.183594 L 2.6875 -6.304688 L 3.617188 -4.496094 L 4.300781 -3.859375 L 4.933594 -3.128906 L 6.644531 -2.050781 L 7.328125 -1.320312 L 8.257812 -0.878906 L 9.234375 -0.585938 L 11.140625 0.0976562 Z M 13.144531 0.441406 "/></g></g></g></svg>